:SAMPLES-PER-SECOND 30
:FRAME-RANGE 1-663
:FULLY-SPECIFIED
:DEGREES
104
root  -29.4004 34.4721 121.7 -152.316 86.0988 -174.549
RightUpLeg  -57.1066 -7.8717 5.08376
RightLeg  52.1643 -2.71439 -4.11962
RightFoot  -9.33867 -0.109705 2.6497
RightToes  -3.4386e-010 1.2921e-014 -6.02303e-014
Spine  30.9504 -2.90259 3.31076
Spine1  8.71277 0.374957 -5.06271
HEad  3.88697 1.55337 -0.763568
LeftShoulder1  3.23255 -15.2371 -10.3713
LeftArm  -14.1104 -53.6153 -48.4414
LeftForeArm  0.647491 6.89529 -6.42313
LeftHand  -0.0418475 4.67477 3.87048
RightShoulder  2.36742 10.7261 9.66811
RightArm  -23.2784 61.5713 54.9332
RightForeArm  37.6375 -5.10463 -3.22374
RightHand  -0.205435 -3.70678 -13.3832
LeftUpLeg  -56.9924 4.1741 -2.71444
LeftLeg  43.3573 6.73529 7.18276
LeftFoot  -8.04288 -0.0347997 2.8896
LeftToes  -7.12384e-010 -7.51861e-011 -8.34901e-011
105
root  -29.2418 34.1358 121.685 -145.195 85.4856 -167.657
RightUpLeg  -59.5716 -9.0582 6.22717
RightLeg  55.9304 -1.78731 -3.26834
RightFoot  -8.86579 -0.119137 2.72755
RightToes  -3.4386e-010 1.2921e-014 -6.02303e-014
Spine  32.7554 -3.03627 3.4811
Spine1  8.46794 0.335806 -5.02233
HEad  2.40089 1.56869 -1.04854
LeftShoulder1  3.17297 -15.6479 -9.59746
LeftArm  -15.2166 -54.4729 -46.7416
LeftForeArm  -0.419253 6.84888 -6.21706
LeftHand  -0.0450921 4.77769 3.7575
RightShoulder  2.28171 10.7134 9.00072
RightArm  -23.6723 63.1284 54.0695
RightForeArm  36.5098 -5.09286 -3.40596
RightHand  -0.198728 -3.71223 -12.9446
LeftUpLeg  -58.5787 4.16111 -2.10381
LeftLeg  46.1439 6.18888 7.29051
LeftFoot  -9.38623 0.0108156 2.67457
LeftToes  -7.12384e-010 -7.51861e-011 -8.34901e-011
106
root  -29.105 33.6639 121.728 -136.79 85.2019 -160.122
RightUpLeg  -61.9546 -8.92381 7.13283
RightLeg  57.7416 -2.02848 -3.91709
RightFoot  -12.4931 -0.0517748 3.27596
RightToes  -3.4386e-010 1.2921e-014 -6.02303e-014
Spine  33.741 -3.00822 3.52503
Spine1  8.50759 0.674591 -5.34999
HEad  0.608515 1.5778 -1.2316
LeftShoulder1  3.02104 -15.7805 -8.57835
LeftArm  -16.5104 -55.3411 -45.1735
LeftForeArm  -2.64118 6.75864 -5.84536
LeftHand  -0.0464577 4.58274 3.47944
RightShoulder  2.18626 10.6216 8.35207
RightArm  -24.0486 64.547 52.9534
RightForeArm  34.5784 -4.28143 -3.26243
RightHand  -0.198459 -3.63252 -12.3355
LeftUpLeg  -61.2604 4.58283 -1.5447
LeftLeg  49.5629 5.57611 7.43835
LeftFoot  -10.956 0.0576204 2.44874
LeftToes  -7.12384e-010 -7.51861e-011 -8.34901e-011
107
root  -28.9667 33.1057 121.825 -130.913 84.806 -155.168
RightUpLeg  -63.9976 -8.21859 7.28319
RightLeg  58.6883 -1.50193 -3.13503
RightFoot  -14.5336 0.0935004 6.88948
RightToes  -3.4386e-010 1.2921e-014 -6.02303e-014
Spine  35.195 -3.00167 3.39193
Spine1  7.84876 0.858209 -5.40316
HEad  -1.16195 1.61913 -1.61028
LeftShoulder1  2.91981 -15.6569 -8.09776
LeftArm  -18.3344 -55.9484 -43.192
LeftForeArm  -4.31391 6.55166 -5.34101
LeftHand  -0.0488238 4.26335 2.91127
RightShoulder  2.14835 10.9566 7.64065
RightArm  -25.3057 65.8436 51.2151
RightForeArm  32.9134 -3.63909 -3.48321
RightHand  -0.189267 -3.65142 -11.8324
LeftUpLeg  -64.1649 4.81184 -0.832094
LeftLeg  53.2524 5.14459 7.86241
LeftFoot  -12.7796 0.0959445 1.5296
LeftToes  -7.12384e-010 -7.51861e-011 -8.34901e-011
108
root  -28.834 32.4237 121.956 -130.572 84.3047 -155.403
RightUpLeg  -65.7129 -7.62237 7.03138
RightLeg  60.7582 -0.252339 -0.995472
RightFoot  -15.2007 0.0152492 3.50912
RightToes  -3.4386e-010 1.2921e-014 -6.02303e-014
Spine  36.4723 -2.96544 3.36198
Spine1  7.74444 0.935675 -5.32587
HEad  -2.78044 1.27481 -1.75351
LeftShoulder1  2.84103 -15.9242 -7.39729
LeftArm  -18.9112 -56.5444 -41.041
LeftForeArm  -5.26115 6.40135 -5.56402
LeftHand  -0.046772 4.41345 3.03851
RightShoulder  2.0827 11.1919 6.85685
RightArm  -27.1916 67.0169 48.9293
RightForeArm  31.0598 -3.48033 -3.97488
RightHand  -0.181925 -3.66488 -11.411
LeftUpLeg  -66.9947 4.86316 -0.477918
LeftLeg  57.3539 4.38961 7.91167
LeftFoot  -14.6036 0.121219 1.17861
LeftToes  -7.12384e-010 -7.51861e-011 -8.34901e-011
109
root  -28.7039 31.552 122.119 -133.963 84.0013 -159.343
RightUpLeg  -67.8915 -7.45618 7.24814
RightLeg  64.5718 -0.397448 -1.51549
RightFoot  -18.575 -0.0407004 1.34523
RightToes  -3.4386e-010 1.2921e-014 -6.02303e-014
Spine  36.927 -2.92099 3.10676
Spine1  8.24896 1.0449 -5.40555
HEad  -4.39288 0.857466 -1.50546
LeftShoulder1  2.84246 -16.3283 -7.06143
LeftArm  -19.3749 -57.2729 -38.474
LeftForeArm  -3.03708 6.54064 -6.04897
LeftHand  -0.036566 4.9337 3.30965
RightShoulder  2.03686 11.4271 6.2484
RightArm  -29.3089 67.9451 46.3862
RightForeArm  29.7703 -3.80495 -4.56465
RightHand  -0.183977 -3.5782 -11.0024
LeftUpLeg  -70.1957 4.67045 -0.505462
LeftLeg  62.1345 3.67285 8.16607
LeftFoot  -16.5266 0.16431 1.43809
LeftToes  -7.12384e-010 -7.51861e-011 -8.34901e-011
110
root  -28.5868 30.6132 122.308 -134.334 83.78 -160.109
RightUpLeg  -70.6011 -6.66255 7.68385
RightLeg  69.0989 -0.865407 -3.28435
RightFoot  -21.1789 -0.0984589 0.521834
RightToes  -3.4386e-010 1.2921e-014 -6.02303e-014
Spine  37.5627 -2.78429 2.93063
Spine1  8.50158 1.16535 -5.3704
HEad  -5.51314 0.70852 -1.42275
LeftShoulder1  2.79466 -16.4435 -6.69419
LeftArm  -20.4953 -57.3501 -36.3868
LeftForeArm  -1.61388 6.28802 -6.05311
LeftHand  -0.0519181 4.05734 2.81422
RightShoulder  1.96509 11.5934 5.53097
RightArm  -30.6032 68.6743 45.1414
RightForeArm  28.3959 -4.22062 -5.1625
RightHand  -0.185835 -3.49434 -10.6364
LeftUpLeg  -73.3774 4.78137 -0.19899
LeftLeg  67.1099 2.89154 8.30563
LeftFoot  -18.7016 0.171689 0.92447
LeftToes  -7.12384e-010 -7.51861e-011 -8.34901e-011
111
root  -28.4666 29.5785 122.501 -138.223 83.8391 -164.202
RightUpLeg  -73.4006 -5.6792 7.08286
RightLeg  74.277 -0.861512 -4.5986
RightFoot  -23.8475 -0.0612707 0.915354
RightToes  -3.4386e-010 1.2921e-014 -6.02303e-014
Spine  38.2405 -2.77201 2.43387
Spine1  8.5082 1.31242 -5.76131
HEad  -6.54884 0.370205 -1.16778
LeftShoulder1  2.80407 -16.6176 -6.60705
LeftArm  -21.6284 -57.3921 -34.328
LeftForeArm  -2.30437 5.56218 -6.04647
LeftHand  -0.0586967 3.71736 2.83382
RightShoulder  1.92792 11.6458 5.19792
RightArm  -31.4626 69.1271 44.3981
RightForeArm  26.8675 -4.33883 -5.57667
RightHand  -0.177317 -3.50041 -10.1277
LeftUpLeg  -76.4332 4.61291 -0.207484
LeftLeg  72.3299 2.09099 8.43489
LeftFoot  -20.9259 0.106966 -0.221914
LeftToes  -7.12384e-010 -7.51861e-011 -8.34901e-011
112
root  -28.3531 28.5857 122.665 -148.163 83.6054 -174.191
RightUpLeg  -75.7788 -5.49919 6.2232
RightLeg  79.0073 -0.682385 -5.99229
RightFoot  -26.8339 -0.0489989 0.97797
RightToes  -3.4386e-010 1.2921e-014 -6.02303e-014
Spine  38.9304 -2.94185 1.73487
Spine1  8.64157 1.06905 -5.83101
HEad  -7.77923 -0.0279761 -0.91463
LeftShoulder1  2.83693 -16.744 -6.69048
LeftArm  -23.229 -57.6097 -32.3722
LeftForeArm  -1.74778 4.64472 -5.85498
LeftHand  -0.0643858 3.44823 2.86449
RightShoulder  1.91214 11.9064 4.8317
RightArm  -32.4651 69.391 43.2706
RightForeArm  26.0108 -4.50432 -5.8711
RightHand  -0.181882 -3.37803 -9.79252
LeftUpLeg  -79.0236 3.56141 -0.449972
LeftLeg  76.8635 1.4973 8.99098
LeftFoot  -22.6334 0.0278772 -1.09213
LeftToes  -7.12384e-010 -7.51861e-011 -8.34901e-011
113
root  -28.2656 27.6834 122.813 -157.123 83.1835 176.75
RightUpLeg  -77.9353 -5.3684 5.4139
RightLeg  83.1492 -0.352141 -7.36226
RightFoot  -29.4507 0.0258014 1.4175
RightToes  -3.4386e-010 1.2921e-014 -6.02303e-014
Spine  39.3977 -3.13665 1.36915
Spine1  8.90666 0.905263 -6.03256
HEad  -8.33196 -0.534155 -0.745276
LeftShoulder1  2.76719 -16.8392 -6.22588
LeftArm  -24.3293 -58.0186 -31.5602
LeftForeArm  -2.46408 3.83486 -5.59584
LeftHand  -0.0730971 2.92857 2.79306
RightShoulder  1.91615 12.096 4.68669
RightArm  -33.5458 69.3338 41.9984
RightForeArm  25.6024 -4.33794 -5.9806
RightHand  -0.191498 -3.31594 -10.06
LeftUpLeg  -81.3215 2.42904 -0.595894
LeftLeg  80.7031 0.932998 9.42163
LeftFoot  -24.1111 -0.0660876 -1.88423
LeftToes  -7.12384e-010 -7.51861e-011 -8.34901e-011
114
root  -28.1667 26.8025 122.954 -162.766 82.6249 171.222
RightUpLeg  -80.0798 -5.26912 4.82841
RightLeg  87.4598 0.206419 -8.2981
RightFoot  -31.2349 0.120286 1.89757
RightToes  -3.4386e-010 1.2921e-014 -6.02303e-014
Spine  39.875 -3.14066 1.3956
Spine1  9.11633 1.01987 -6.02156
HEad  -9.03736 -1.31665 -0.713471
LeftShoulder1  2.6671 -16.9416 -5.59126
LeftArm  -24.5786 -58.7325 -32.0435
LeftForeArm  -3.83841 3.41689 -5.40097
LeftHand  -0.071514 2.79332 2.60158
RightShoulder  1.91112 11.9418 4.79126
RightArm  -34.6792 68.8011 40.0702
RightForeArm  24.5985 -3.14042 -5.48763
RightHand  -0.213863 -3.15611 -10.549
LeftUpLeg  -83.3911 1.55904 -0.526119
LeftLeg  84.4594 0.317708 9.61519
LeftFoot  -25.5308 -0.175687 -2.6435
LeftToes  -7.12384e-010 -7.51861e-011 -8.34901e-011
115
root  -28.0844 25.9739 123.079 -164.509 82.1661 169.885
RightUpLeg  -81.5853 -4.9409 4.73546
RightLeg  91.1588 0.81331 -9.31738
RightFoot  -32.9359 0.200231 2.22636
RightToes  -3.4386e-010 1.2921e-014 -6.02303e-014
Spine  40.5128 -2.91236 1.60696
Spine1  9.18178 1.2639 -5.33322
HEad  -9.3815 -2.23685 -1.33375
LeftShoulder1  2.7432 -17.1552 -5.85315
LeftArm  -24.2371 -59.1887 -32.3142
LeftForeArm  -4.45288 2.99358 -5.54233
LeftHand  -0.0616397 2.28233 1.88553
RightShoulder  1.8942 11.9882 4.62309
RightArm  -36.5272 68.3776 37.0459
RightForeArm  24.2274 -2.05604 -5.0307
RightHand  -0.225264 -3.01141 -10.4903
LeftUpLeg  -85.1536 1.30893 -0.297074
LeftLeg  88.0392 -0.289383 9.46221
LeftFoot  -26.8134 -0.262003 -3.11456
LeftToes  -7.12384e-010 -7.51861e-011 -8.34901e-011
116
root  -28.0186 25.1873 123.205 -167.74 81.7079 166.996
RightUpLeg  -83.0932 -4.8577 4.49779
RightLeg  94.6287 1.47188 -9.94093
RightFoot  -34.6119 0.340383 2.79972
RightToes  -3.4386e-010 1.2921e-014 -6.02303e-014
Spine  40.8215 -3.54428 1.93773
Spine1  9.39775 1.10666 -6.44125
HEad  -9.97446 -2.19122 -1.32302
LeftShoulder1  2.50492 -16.7212 -4.84421
LeftArm  -23.0954 -58.774 -32.6822
LeftForeArm  -4.46609 1.8476 -6.07267
LeftHand  -0.0423732 1.89809 1.08797
RightShoulder  1.95407 12.3115 4.76785
RightArm  -38.0846 68.6166 35.4881
RightForeArm  22.747 -1.17567 -5.21033
RightHand  -0.234132 -2.95515 -10.6858
LeftUpLeg  -86.7865 1.07539 -0.389342
LeftLeg  91.2328 -0.810614 9.24211
LeftFoot  -28.0157 -0.331001 -3.40778
LeftToes  -7.12384e-010 -7.51861e-011 -8.34901e-011
